<?xml version="1.0" standalone="no"?>
<!DOCTYPE svg PUBLIC "-//W3C//DTD SVG 20010904//EN"
 "http://www.w3.org/TR/2001/REC-SVG-20010904/DTD/svg10.dtd">
<svg version="1.0" xmlns="http://www.w3.org/2000/svg"
 width="700.000000pt" height="700.000000pt" viewBox="0 0 700.000000 700.000000"
 preserveAspectRatio="xMidYMid meet">
<metadata>
Created by potrace 1.11, written by Peter Selinger 2001-2013
</metadata>
<g transform="translate(0.000000,700.000000) scale(0.100000,-0.100000)"
fill="#000000" stroke="none">
<path d="M3388 6815 c-2 -2 -55 -5 -118 -9 -131 -7 -149 -9 -320 -37 -618 -99
-1217 -392 -1689 -824 -67 -62 -224 -224 -279 -287 -213 -249 -420 -584 -536
-868 -15 -36 -31 -74 -36 -85 -43 -92 -148 -451 -136 -463 3 -3 174 -6 380 -6
l374 -1 12 40 c62 208 192 476 328 675 100 145 165 224 294 355 316 320 676
539 1098 666 83 25 260 65 325 75 28 3 59 8 70 10 130 25 580 23 700 -1 11 -3
36 -7 55 -9 154 -22 375 -82 535 -146 185 -73 426 -206 578 -318 429 -317 765
-779 927 -1274 12 -38 27 -68 33 -69 52 -4 738 -1 743 3 3 3 -5 43 -16 89
-251 984 -968 1818 -1905 2217 -193 82 -479 173 -620 198 -53 9 -71 12 -95 18
-14 3 -41 7 -60 10 -95 12 -137 18 -160 22 -70 11 -473 26 -482 19z"/>
<path d="M2376 4681 l-258 -259 456 -456 456 -457 -471 -471 -471 -471 261
-261 260 -260 471 471 472 471 455 -455 456 -455 260 260 261 261 -455 456
-455 456 440 440 440 440 -260 260 -261 261 -440 -440 -441 -441 -453 455
c-250 249 -456 454 -459 454 -3 0 -122 -116 -264 -259z"/>
<path d="M274 2758 c-8 -12 73 -305 106 -383 4 -11 18 -47 31 -80 94 -248 280
-582 434 -780 9 -11 26 -33 38 -49 236 -314 597 -627 967 -840 108 -62 292
-156 306 -156 2 0 23 -9 47 -20 175 -80 439 -162 665 -205 13 -2 31 -6 40 -9
9 -3 40 -7 67 -11 28 -3 64 -8 80 -11 100 -16 269 -27 430 -28 126 0 340 10
380 18 11 2 49 7 85 11 236 24 588 124 880 247 77 33 300 146 332 169 14 11
28 19 31 19 20 0 367 246 451 320 168 148 318 302 439 453 79 98 227 311 269
387 14 25 36 63 48 85 114 196 244 517 305 755 25 96 26 107 13 112 -7 2 -177
3 -378 3 l-365 -1 -37 -103 c-20 -57 -42 -115 -48 -130 -7 -14 -16 -35 -20
-46 -24 -62 -102 -214 -157 -308 -187 -314 -491 -632 -798 -832 -300 -195
-647 -332 -975 -385 -41 -7 -83 -14 -93 -16 -133 -24 -581 -24 -702 1 -11 3
-38 7 -59 10 -21 3 -48 7 -60 10 -12 3 -32 7 -46 9 -101 17 -423 116 -444 137
-6 5 -16 9 -24 9 -16 0 -296 139 -339 167 -15 11 -60 41 -99 66 -287 187 -595
505 -771 798 -106 176 -196 369 -253 542 -12 37 -25 67 -28 68 -37 5 -745 2
-748 -3z"/>
</g>
</svg>
